<svg width="721" height="146" viewBox="0 0 721 146" fill="none" xmlns="http://www.w3.org/2000/svg">
<g clip-path="url(#clip0_2435_27)">
<path d="M137.38 80.768C131.759 77.9573 126.137 74.32 120.516 69.856C114.895 65.3093 112.084 59.44 112.084 52.248C112.167 45.304 115.019 39.5587 120.64 35.012C126.261 30.3827 133.867 28.068 143.456 28.068C147.672 28.068 152.012 28.688 156.476 29.928C161.023 31.0853 164.949 32.78 168.256 35.012L161.56 50.264C157.096 48.6933 153.707 47.7013 151.392 47.288C149.077 46.792 146.515 46.544 143.704 46.544C141.141 46.544 139.116 47.164 137.628 48.404C136.14 49.5613 135.396 50.9253 135.396 52.496C135.396 54.3147 136.636 55.9267 139.116 57.332C141.679 58.6547 144.696 60.2253 148.168 62.044C154.12 65.1027 159.865 68.9467 165.404 73.576C170.943 78.2053 173.712 83.9507 173.712 90.812C173.712 97.9213 170.695 103.832 164.66 108.544C158.708 113.256 150.524 115.612 140.108 115.612C135.809 115.612 130.932 114.992 125.476 113.752C120.103 112.429 115.763 110.776 112.456 108.792L119.896 91.804C122.045 93.1267 125.063 94.3667 128.948 95.524C132.916 96.5987 136.429 97.136 139.488 97.136C143.043 97.136 145.729 96.4333 147.548 95.028C149.449 93.6227 150.4 92.1347 150.4 90.564C150.4 89.076 149.036 87.464 146.308 85.728C143.58 83.992 140.604 82.3387 137.38 80.768ZM238.992 114V81.016H208.24V114H185.672V29.68L208.24 28.936V63.284H238.992V29.68H261.56V114H238.992ZM314.006 56.712L305.946 79.652H322.438L314.006 56.712ZM325.662 29.68L357.158 111.768L334.962 114L328.886 97.384H299.746L293.918 114H271.474L303.094 29.68H325.662ZM423.739 114V73.204L412.331 88.58L403.279 89.82L389.639 73.204V114H367.071V29.68H382.571L407.991 61.796L431.303 29.68H446.307V114H423.739ZM463.703 114V29.68H491.851C501.11 29.68 509.211 31.5813 516.155 35.384C523.099 39.1867 526.571 45.3867 526.571 53.984V54.604C526.489 57.58 525.827 60.308 524.587 62.788C523.43 65.1853 521.901 67.3347 519.999 69.236C523.306 71.5507 525.993 74.4027 528.059 77.792C530.209 81.0987 531.283 84.7773 531.283 88.828C531.283 98.5 527.605 105.113 520.247 108.668C512.89 112.223 504.665 114 495.571 114H463.703ZM491.107 47.412H486.271V61.672H491.355C494.827 61.672 497.679 61.1347 499.911 60.06C502.143 58.9853 503.259 57.332 503.259 55.1C503.259 52.5373 502.185 50.636 500.035 49.396C497.886 48.0733 494.91 47.412 491.107 47.412ZM495.819 79.404H486.271V96.268H496.067C499.539 96.268 502.391 95.6067 504.623 94.284C506.855 92.9613 507.971 90.9773 507.971 88.332C507.971 85.5213 506.897 83.3307 504.747 81.76C502.598 80.1893 499.622 79.404 495.819 79.404ZM578.717 56.712L570.657 79.652H587.149L578.717 56.712ZM590.373 29.68L621.869 111.768L599.673 114L593.597 97.384H564.457L558.629 114H536.185L567.805 29.68H590.373ZM652.986 114V80.768L624.342 31.912L647.778 29.68L664.146 60.06L681.63 29.68H704.818L675.554 81.016V114H652.986Z" fill="#151515"/>
<rect x="11" y="16" width="80.0558" height="114.365" rx="9" fill="black"/>
<path d="M39.4093 90.5356L64.3492 81.7675C65.937 81.2092 66.9995 79.7094 66.9995 78.0263C66.9995 75.3045 64.3203 73.3917 61.746 74.2757L36.7428 82.8617C35.1019 83.4252 34 84.9686 34 86.7035C34 89.504 36.7673 91.4645 39.4093 90.5356Z" fill="white"/>
<path d="M39.4093 78.1245L64.3492 69.3563C65.937 68.7981 66.9995 67.2983 66.9995 65.6152C66.9995 62.8934 64.3203 60.9806 61.746 61.8646L36.7428 70.4506C35.1019 71.014 34 72.5575 34 74.2924C34 77.0929 36.7673 79.0533 39.4093 78.1245Z" fill="white"/>
<path d="M47.1408 62.625L65.1577 56.6128C66.2571 56.2459 66.9985 55.2169 66.9985 54.0579C66.9985 52.2271 65.2112 50.9297 63.4704 51.4971L45.4119 57.3831C44.276 57.7533 43.5073 58.8123 43.5073 60.0071C43.5073 61.8912 45.3535 63.2214 47.1408 62.625Z" fill="white"/>
<path d="M47.1408 44.2778L65.1577 38.2656C66.2571 37.8988 66.9985 36.8697 66.9985 35.7107C66.9985 33.8799 65.2112 32.5826 63.4704 33.1499L45.4119 39.0359C44.276 39.4061 43.5073 40.4652 43.5073 41.6599C43.5073 43.544 45.3535 44.8742 47.1408 44.2778Z" fill="white"/>
<path d="M47.1408 53.4517L65.1577 47.4395C66.2571 47.0726 66.9985 46.0436 66.9985 44.8846C66.9985 43.0537 65.2112 41.7564 63.4704 42.3238L45.4119 48.2097C44.276 48.5799 43.5073 49.639 43.5073 50.8337C43.5073 52.7179 45.3535 54.0481 47.1408 53.4517Z" fill="white"/>
<path d="M50.5 79.4863C59.6126 79.4863 67 86.6137 67 95.4053C66.9998 104.197 59.6124 111.323 50.5 111.323C41.3877 111.323 34.0012 104.197 34.001 95.4053C34.001 86.6138 41.3876 79.4865 50.5 79.4863ZM50.2188 87.041C45.5857 87.0413 41.8301 90.6646 41.8301 95.1348C41.8301 99.6049 45.5857 103.229 50.2188 103.229C54.8521 103.229 58.6084 99.6051 58.6084 95.1348C58.6084 90.6645 54.852 87.041 50.2188 87.041Z" fill="white"/>
<path d="M40.1522 62.6738V44.6245C40.1522 42.6076 38.2438 41.1364 36.2933 41.6497C34.9419 42.0053 34 43.2271 34 44.6245V62.6738C34 64.7336 35.9849 66.2113 37.9582 65.6207C39.2602 65.2309 40.1522 64.0329 40.1522 62.6738Z" fill="white"/>
</g>
<defs>
<clipPath id="clip0_2435_27">
<rect width="721" height="146" fill="white"/>
</clipPath>
</defs>
</svg>
