<svg width="512" height="512" viewBox="0 0 512 512" fill="none" xmlns="http://www.w3.org/2000/svg">
<g clip-path="url(#clip0_2576_131)">
<path d="M448 0H64C28.6538 0 0 28.6538 0 64V448C0 483.346 28.6538 512 64 512H448C483.346 512 512 483.346 512 448V64C512 28.6538 483.346 0 448 0Z" fill="#3D5CB6"/>
<path d="M204.55 281.773L319.866 241.767C327.13 239.247 332 232.403 332 224.714C332 212.357 319.862 203.654 308.158 207.62L192.556 246.793C185.05 249.336 180 256.38 180 264.305C180 277.02 192.537 285.941 204.55 281.773Z" fill="#FFFCFC"/>
<path d="M240.287 211.279L323.576 183.853C328.603 182.197 332 177.503 332 172.21C332 163.898 323.902 157.996 315.989 160.541L232.512 187.391C227.318 189.061 223.797 193.893 223.797 199.348C223.797 207.903 232.161 213.955 240.287 211.279Z" fill="#FFFCFC"/>
<path d="M240.287 127.888L323.576 100.461C328.603 98.8056 332 94.1108 332 88.8184C332 80.5063 323.902 74.6045 315.989 77.1496L232.512 103.999C227.318 105.669 223.797 110.501 223.797 115.957C223.797 124.511 232.161 130.563 240.287 127.888Z" fill="#FFFCFC"/>
<path d="M240.287 169.584L323.576 142.157C328.603 140.502 332 135.807 332 130.514C332 122.202 323.902 116.301 315.989 118.846L232.512 145.695C227.318 147.365 223.797 152.197 223.797 157.653C223.797 166.207 232.161 172.259 240.287 169.584Z" fill="#FFFCFC"/>
<path d="M308.158 264.032C319.862 260.067 332 268.77 332 281.127C332 288.815 327.13 295.659 319.866 298.179L301.371 304.595C319.96 317.785 332 338.876 332 362.645C332 402.605 297.974 434.999 256 434.999C214.026 434.999 180 402.605 180 362.645C180 352.612 182.145 343.057 186.021 334.371C182.364 331.042 180 326.237 180 320.717C180 312.792 185.05 305.749 192.556 303.205L308.158 264.032ZM254.712 324.628C233.37 324.628 216.069 341.1 216.068 361.418C216.068 381.737 233.369 398.209 254.712 398.209C276.054 398.209 293.356 381.737 293.356 361.418C293.356 341.1 276.054 324.628 254.712 324.628Z" fill="#FFFCFC"/>
<path d="M208.339 211.239V129.562C208.339 120.29 199.582 113.517 190.609 115.847C184.362 117.469 180 123.107 180 129.562V211.239C180 220.706 189.105 227.51 198.183 224.828C204.206 223.05 208.339 217.519 208.339 211.239Z" fill="#FFFCFC"/>
</g>
<defs>
<clipPath id="clip0_2576_131">
<rect width="512" height="512" fill="white"/>
</clipPath>
</defs>
</svg>
