<svg width="84" height="171" viewBox="0 0 84 171" fill="none" xmlns="http://www.w3.org/2000/svg">
<g filter="url(#filter0_d_2554_14)">
<path d="M23.0635 120.333L67.1858 104.254C70.0764 103.201 72 100.453 72 97.3762C72 92.317 66.9908 88.7829 62.2246 90.4794L17.9829 106.226C14.9953 107.29 13 110.118 13 113.289C13 118.494 18.1734 122.115 23.0635 120.333Z" stroke="black"/>
<path d="M23.0635 97.3328L67.1858 81.2543C70.0764 80.201 72 77.4527 72 74.3762C72 69.317 66.9908 65.7829 62.2246 67.4794L17.9829 83.2264C14.9953 84.2898 13 87.1179 13 90.2891C13 95.4938 18.1734 99.1148 23.0635 97.3328Z" stroke="black"/>
<path d="M36.7609 68.6615L68.652 57.631C70.6558 56.9379 72 55.0507 72 52.9304C72 49.527 68.6586 47.1289 65.4342 48.2182L33.4645 59.0187C31.3939 59.7183 30 61.6605 30 63.8461C30 67.3481 33.4513 69.8063 36.7609 68.6615Z" stroke="black"/>
<path d="M36.7609 34.6615L68.652 23.631C70.6558 22.9379 72 21.0507 72 18.9304C72 15.527 68.6586 13.1289 65.4342 14.2182L33.4645 25.0187C31.3939 25.7183 30 27.6605 30 29.8461C30 33.3481 33.4513 35.8063 36.7609 34.6615Z" stroke="black"/>
<path d="M36.7609 51.6615L68.652 40.631C70.6558 39.9379 72 38.0507 72 35.9304C72 32.527 68.6586 30.1289 65.4342 31.2182L33.4645 42.0187C31.3939 42.7183 30 44.6605 30 46.8461C30 50.3481 33.4513 52.8063 36.7609 51.6615Z" stroke="black"/>
<mask id="path-6-inside-1_2554_14" fill="white">
<path d="M42.5 100C58.7924 100 72 113.208 72 129.5C72 145.792 58.7924 159 42.5 159C26.2076 159 13 145.792 13 129.5C13 113.208 26.2076 100 42.5 100ZM42 114C33.7157 114 27 120.716 27 129C27 137.284 33.7157 144 42 144C50.2843 144 57 137.284 57 129C57 120.716 50.2843 114 42 114Z"/>
</mask>
<path d="M42.5 100V99V100ZM42.5 159V160V159ZM42.5 100V101C58.2401 101 71 113.76 71 129.5H72H73C73 112.655 59.3447 99 42.5 99V100ZM72 129.5H71C71 145.24 58.2401 158 42.5 158V159V160C59.3447 160 73 146.345 73 129.5H72ZM42.5 159V158C26.7599 158 14 145.24 14 129.5H13H12C12 146.345 25.6553 160 42.5 160V159ZM13 129.5H14C14 113.76 26.7599 101 42.5 101V100V99C25.6553 99 12 112.655 12 129.5H13ZM42 114V113C33.1634 113 26 120.163 26 129H27H28C28 121.268 34.268 115 42 115V114ZM27 129H26C26 137.837 33.1634 145 42 145V144V143C34.268 143 28 136.732 28 129H27ZM42 144V145C50.8366 145 58 137.837 58 129H57H56C56 136.732 49.732 143 42 143V144ZM57 129H58C58 120.163 50.8366 113 42 113V114V115C49.732 115 56 121.268 56 129H57Z" fill="black" mask="url(#path-6-inside-1_2554_14)"/>
<path d="M24 69.035V35.2009C24 31.5743 20.5516 28.9405 17.0529 29.8947C14.66 30.5473 13 32.7206 13 35.2009V69.035C13 72.7408 16.5904 75.3861 20.1297 74.288C22.4313 73.574 24 71.4448 24 69.035Z" stroke="black"/>
</g>
<defs>
<filter id="filter0_d_2554_14" x="8.5" y="13.4521" width="68" height="153.548" filterUnits="userSpaceOnUse" color-interpolation-filters="sRGB">
<feFlood flood-opacity="0" result="BackgroundImageFix"/>
<feColorMatrix in="SourceAlpha" type="matrix" values="0 0 0 0 0 0 0 0 0 0 0 0 0 0 0 0 0 0 127 0" result="hardAlpha"/>
<feOffset dy="4"/>
<feGaussianBlur stdDeviation="2"/>
<feComposite in2="hardAlpha" operator="out"/>
<feColorMatrix type="matrix" values="0 0 0 0 0 0 0 0 0 0 0 0 0 0 0 0 0 0 0.25 0"/>
<feBlend mode="normal" in2="BackgroundImageFix" result="effect1_dropShadow_2554_14"/>
<feBlend mode="normal" in="SourceGraphic" in2="effect1_dropShadow_2554_14" result="shape"/>
</filter>
</defs>
</svg>
