<svg width="60" height="148" viewBox="0 0 60 148" fill="none" xmlns="http://www.w3.org/2000/svg">
<path d="M10.5635 85.3328L54.6858 69.2543C57.5764 68.201 59.5 65.4527 59.5 62.3762C59.5 57.317 54.4908 53.7829 49.7246 55.4794L5.48291 71.2264C2.49533 72.2898 0.5 75.1179 0.5 78.2891C0.5 83.4938 5.67343 87.1148 10.5635 85.3328Z" stroke="black"/>
<path d="M24.2609 56.6615L56.152 45.631C58.1558 44.9379 59.5 43.0507 59.5 40.9304C59.5 37.527 56.1586 35.1289 52.9342 36.2182L20.9645 47.0187C18.8939 47.7183 17.5 49.6605 17.5 51.8461C17.5 55.3481 20.9513 57.8063 24.2609 56.6615Z" stroke="black"/>
<path d="M24.2609 22.6615L56.152 11.631C58.1558 10.9379 59.5 9.05069 59.5 6.93037C59.5 3.52696 56.1586 1.12886 52.9342 2.21818L20.9645 13.0187C18.8939 13.7183 17.5 15.6605 17.5 17.8461C17.5 21.3481 20.9513 23.8063 24.2609 22.6615Z" stroke="black"/>
<path d="M24.2609 39.6615L56.152 28.631C58.1558 27.9379 59.5 26.0507 59.5 23.9304C59.5 20.527 56.1586 18.1289 52.9342 19.2182L20.9645 30.0187C18.8939 30.7183 17.5 32.6605 17.5 34.8461C17.5 38.3481 20.9513 40.8063 24.2609 39.6615Z" stroke="black"/>
<mask id="path-5-inside-1_2576_19" fill="white">
<path d="M49.7246 78.4792C54.4908 76.7829 59.5 80.3176 59.5 85.3767C59.4998 88.4531 57.576 91.2013 54.6855 92.2546L47.6104 94.8318C54.8262 100.209 59.4999 108.809 59.5 118.5C59.5 134.792 46.2924 148 30 148C13.7076 148 0.5 134.792 0.5 118.5C0.500045 114.342 1.36183 110.385 2.91406 106.798C1.44819 105.45 0.5 103.515 0.5 101.289C0.500167 98.1179 2.49517 95.2898 5.48242 94.2263L49.7246 78.4792ZM29.5 103C21.2158 103 14.5002 109.716 14.5 118C14.5 126.284 21.2157 133 29.5 133C37.7843 133 44.5 126.284 44.5 118C44.4998 109.716 37.7842 103 29.5 103Z"/>
</mask>
<path d="M49.7246 78.4792L49.3893 77.5371L49.3893 77.5371L49.7246 78.4792ZM59.5 85.3767L60.5 85.3768V85.3767H59.5ZM54.6855 92.2546L55.0278 93.1942L55.0279 93.1942L54.6855 92.2546ZM47.6104 94.8318L47.2681 93.8922L45.5271 94.5264L47.0128 95.6336L47.6104 94.8318ZM59.5 118.5H60.5V118.5L59.5 118.5ZM30 148V149V148ZM0.5 118.5L-0.5 118.5V118.5H0.5ZM2.91406 106.798L3.83185 107.195L4.11402 106.542L3.59091 106.061L2.91406 106.798ZM0.5 101.289L-0.5 101.289V101.289H0.5ZM5.48242 94.2263L5.1471 93.2842L5.14705 93.2842L5.48242 94.2263ZM14.5 118L13.5 118V118H14.5ZM44.5 118H45.5V118L44.5 118ZM49.7246 78.4792L50.0599 79.4214C54.1749 77.9567 58.5 81.0086 58.5 85.3767H59.5H60.5C60.5 79.6267 54.8067 75.609 49.3893 77.5371L49.7246 78.4792ZM59.5 85.3767L58.5 85.3766C58.4998 88.0327 56.8388 90.4057 54.3432 91.3151L54.6855 92.2546L55.0279 93.1942C58.3132 91.997 60.4998 88.8734 60.5 85.3768L59.5 85.3767ZM54.6855 92.2546L54.3433 91.315L47.2681 93.8922L47.6104 94.8318L47.9526 95.7714L55.0278 93.1942L54.6855 92.2546ZM47.6104 94.8318L47.0128 95.6336C53.9864 100.831 58.4999 109.138 58.5 118.5L59.5 118.5L60.5 118.5C60.4999 108.479 55.6661 99.5882 48.2079 94.03L47.6104 94.8318ZM59.5 118.5H58.5C58.5 134.24 45.7401 147 30 147V148V149C46.8447 149 60.5 135.344 60.5 118.5H59.5ZM30 148V147C14.2599 147 1.5 134.24 1.5 118.5H0.5H-0.5C-0.5 135.344 13.1553 149 30 149V148ZM0.5 118.5L1.5 118.5C1.50004 114.481 2.33273 110.66 3.83185 107.195L2.91406 106.798L1.99627 106.401C0.390936 110.111 -0.499953 114.202 -0.5 118.5L0.5 118.5ZM2.91406 106.798L3.59091 106.061C2.31949 104.892 1.5 103.22 1.5 101.289H0.5H-0.5C-0.5 103.81 0.576887 106.007 2.23722 107.534L2.91406 106.798ZM0.5 101.289L1.5 101.289C1.50014 98.5409 3.22909 96.09 5.8178 95.1684L5.48242 94.2263L5.14705 93.2842C1.76125 94.4895 -0.499811 97.695 -0.5 101.289L0.5 101.289ZM5.48242 94.2263L5.81774 95.1684L50.0599 79.4214L49.7246 78.4792L49.3893 77.5371L5.1471 93.2842L5.48242 94.2263ZM29.5 103V102C20.6635 102 13.5002 109.163 13.5 118L14.5 118L15.5 118C15.5002 110.268 21.7681 104 29.5 104V103ZM14.5 118H13.5C13.5 126.836 20.6634 134 29.5 134V133V132C21.768 132 15.5 125.732 15.5 118H14.5ZM29.5 133V134C38.3366 134 45.5 126.836 45.5 118H44.5H43.5C43.5 125.732 37.232 132 29.5 132V133ZM44.5 118L45.5 118C45.4998 109.163 38.3365 102 29.5 102V103V104C37.2319 104 43.4998 110.268 43.5 118L44.5 118Z" fill="black" mask="url(#path-5-inside-1_2576_19)"/>
<path d="M11.5 57.035V23.2009C11.5 19.5743 8.05162 16.9405 4.55285 17.8947C2.16002 18.5473 0.5 20.7206 0.5 23.2009V57.035C0.5 60.7408 4.09035 63.3861 7.62972 62.288C9.93129 61.574 11.5 59.4448 11.5 57.035Z" stroke="black"/>
</svg>
